#!OML:ASF F:\VICON\USERDATA\INSTALL\rory3\rory3.ASF
:FULLY-SPECIFIED
:DEGREES
1566
root 1.74534 9.97209 -5.16817 343.558 34.4761 359.119
lowerback 30.2829 -0.463209 -0.361051
upperback 12.5561 -0.158033 0.764182
thorax -2.44616 0.08833 1.0899
lowerneck -22.5783 -7.7965 -12.8561
upperneck 6.68412 -7.89614 9.2738
head 6.51274 -3.41358 4.10071
rclavicle 7.57867e-014 -3.99557e-014
rhumerus -5.98232 15.5119 -81.2856
rradius 88.7249
rwrist 39.3799
rhand -25.4233 12.02
rfingers 7.12502
rthumb 1.10273 -377.957
lclavicle 7.57867e-014 -3.99557e-014
lhumerus -7.10279 -4.25472 84.15
lradius 83.1641
lwrist -27.7911
lhand -31.6025 21.5626
lfingers 7.12502
lthumb -4.86495 51.4867
rfemur -77.1756 -19.0312 18.8347
rtibia 103.775
rfoot -4.83789 3.90866
rtoes 9.04346
lfemur -75.8643 20.0511 -12.9226
ltibia 103.643
lfoot -7.97034 -18.3077
ltoes -5.69047
1567
root 1.74651 9.97147 -5.16934 343.566 34.4104 359.135
lowerback 30.2403 -0.42117 -0.392974
upperback 12.5821 -0.113229 0.770322
thorax -2.39844 0.108896 1.10096
lowerneck -22.5628 -7.79639 -12.8662
upperneck 6.66515 -7.9006 9.31965
head 6.50756 -3.41253 4.11731
rclavicle 8.07066e-014 -3.70733e-014
rhumerus -5.97659 15.4414 -81.303
rradius 88.7482
rwrist 39.4321
rhand -25.4112 12.0484
rfingers 7.12502
rthumb 1.11445 -377.928
lclavicle 8.07066e-014 -3.70733e-014
lhumerus -7.1036 -4.27306 84.1353
lradius 83.2251
lwrist -27.7087
lhand -31.6053 21.6337
lfingers 7.12502
lthumb -4.86762 51.5578
rfemur -77.1834 -18.9763 18.8298
rtibia 103.767
rfoot -4.82578 3.90354
rtoes 9.20988
lfemur -75.8842 20.1779 -12.9591
ltibia 103.672
lfoot -7.93051 -18.3543
ltoes -5.40964
1568
root 1.74643 9.97055 -5.17202 343.563 34.3766 359.171
lowerback 30.2271 -0.399232 -0.437285
upperback 12.6102 -0.0973999 0.759214
thorax -2.36065 0.115554 1.10926
lowerneck -22.5351 -7.78598 -12.8439
upperneck 6.6481 -7.8962 9.321
head 6.49658 -3.41038 4.1154
rclavicle 9.01488e-014 -7.14631e-014
rhumerus -5.98232 15.4152 -81.3271
rradius 88.784
rwrist 39.4422
rhand -25.4094 11.9506
rfingers 7.12502
rthumb 1.11615 -378.026
lclavicle 9.01488e-014 -7.14631e-014
lhumerus -7.12898 -4.24605 84.0872
lradius 83.2826
lwrist -27.6703
lhand -31.5364 21.4875
lfingers 7.12502
lthumb -4.80106 51.4131
rfemur -77.1637 -18.9363 18.7969
rtibia 103.75
rfoot -4.77974 3.89706
rtoes 9.41723
lfemur -75.867 20.2526 -12.9944
ltibia 103.706
lfoot -7.80382 -18.3432
ltoes -4.42495
1569
root 1.74688 9.96837 -5.1727 343.586 34.3218 359.228
lowerback 30.1754 -0.353997 -0.510432
upperback 12.6455 -0.0591464 0.765618
thorax -2.29787 0.131401 1.1464
lowerneck -22.4299 -7.77551 -12.732
upperneck 6.5032 -7.89976 9.17778
head 6.42191 -3.42282 4.05187
rclavicle 6.86304e-014 -8.24956e-015
rhumerus -5.95106 15.3697 -81.3064
rradius 88.7848
rwrist 39.4685
rhand -25.4483 11.9017
rfingers 7.12502
rthumb 1.07857 -378.075
lclavicle 6.86304e-014 -8.24956e-015
lhumerus -7.08371 -4.2068 84.1042
lradius 83.2667
lwrist -27.7513
lhand -31.5593 21.5331
lfingers 7.12502
lthumb -4.82316 51.4582
rfemur -77.1903 -18.866 18.7606
rtibia 103.759
rfoot -4.73311 3.87893
rtoes 9.47613
lfemur -75.8656 20.3588 -13.0307
ltibia 103.743
lfoot -7.73126 -18.3843
ltoes -3.6681
1570
root 1.74702 9.96602 -5.17347 343.551 34.2669 359.201
lowerback 30.1978 -0.319853 -0.516452
upperback 12.6635 -0.0147201 0.805095
thorax -2.28825 0.152007 1.17978
lowerneck -22.3739 -7.77103 -12.681
upperneck 6.40298 -7.89342 9.06066
head 6.37189 -3.42882 4.00712
rclavicle 5.37216e-014 2.41523e-014
rhumerus -5.9227 15.3256 -81.2812
rradius 88.7836
rwrist 39.4876
rhand -25.4898 11.9175
rfingers 7.12502
rthumb 1.03854 -378.06
lclavicle 5.37216e-014 2.41523e-014
lhumerus -7.0292 -4.15551 84.1733
lradius 83.2334
lwrist -27.8307
lhand -31.5685 21.4881
lfingers 7.12502
lthumb -4.83212 51.413
rfemur -77.1853 -18.7827 18.7947
rtibia 103.753
rfoot -4.72831 3.84197
rtoes 9.25808
lfemur -75.8712 20.4452 -13.0146
ltibia 103.754
lfoot -7.75797 -18.4045
ltoes -3.69345
